<?xml version="1.0" encoding="UTF-8"?>
<svg width="80px" height="26px" viewBox="0 0 80 26" version="1.1" xmlns="http://www.w3.org/2000/svg" xmlns:xlink="http://www.w3.org/1999/xlink">
    <!-- Generator: Sketch 52.4 (67378) - http://www.bohemiancoding.com/sketch -->
    <title>Group 3</title>
    <desc>Created with Sketch.</desc>
    <defs>
        <linearGradient x1="0%" y1="15.5373087%" x2="100%" y2="100%" id="linearGradient-1">
            <stop stop-color="#6A30D1" offset="0%"></stop>
            <stop stop-color="#5C83E3" offset="100%"></stop>
        </linearGradient>
    </defs>
    <g id="Page-1" stroke="none" stroke-width="1" fill="none" fill-rule="evenodd">
        <g id="01---Home" transform="translate(-70.000000, -6043.000000)">
            <g id="Group-17" transform="translate(0.000000, 5975.000000)">
                <g id="Group-3" transform="translate(70.000000, 68.000000)">
                    <path d="M13.8281954,25.9822013 L13.8281954,0.127147426 C15.343349,0.295594664 16.8143907,0.957906633 17.9806148,2.11509699 C17.9934948,2.12787721 18.0063251,2.14070746 18.0191053,2.15358745 L23.9434951,8.12422698 C26.6515547,10.8534275 26.6515547,15.2559561 23.9434951,17.9851566 L18.0191053,23.9557962 C16.8481413,25.1359015 15.3611293,25.81172 13.8281954,25.9822013 Z M11.7506003,25.9043528 C10.4220542,25.6546177 9.1515546,25.018163 8.11968517,23.9942866 C8.10680518,23.9815064 8.09397494,23.9686762 8.08119472,23.9557962 L2.15680487,17.9851566 C-0.55125475,15.2559561 -0.55125475,10.8534275 2.15680487,8.12422698 L8.08119472,2.15358745 C9.11881492,1.1078669 10.4046014,0.458121004 11.7506003,0.205080546 L11.7506003,25.9043528 Z" id="Combined-Shape" fill="url(#linearGradient-1)" fill-rule="nonzero"></path>
                    <path d="M46.578,18.098 C45.8033295,18.098 45.1080031,17.9346683 44.492,17.608 C43.8759969,17.2813317 43.3953351,16.8263362 43.05,16.243 C42.7046649,15.6596637 42.532,14.999337 42.532,14.262 C42.532,13.524663 42.7046649,12.8666696 43.05,12.288 C43.3953351,11.7093304 43.8736636,11.2566683 44.485,10.93 C45.0963364,10.6033317 45.7939961,10.44 46.578,10.44 C47.315337,10.44 47.9616639,10.5893318 48.517,10.888 C49.0723361,11.1866682 49.4899986,11.6159972 49.77,12.176 L48.426,12.96 C48.2113323,12.6146649 47.9430016,12.3556675 47.621,12.183 C47.2989984,12.0103325 46.9466686,11.924 46.564,11.924 C45.9106634,11.924 45.3693355,12.1363312 44.94,12.561 C44.5106645,12.9856688 44.296,13.5526631 44.296,14.262 C44.296,14.9713369 44.5083312,15.5383312 44.933,15.963 C45.3576688,16.3876688 45.90133,16.6 46.564,16.6 C46.9466686,16.6 47.2989984,16.5136675 47.621,16.341 C47.9430016,16.1683325 48.2113323,15.9093351 48.426,15.564 L49.77,16.348 C49.4806652,16.9080028 49.0583361,17.3396651 48.503,17.643 C47.9476639,17.9463348 47.3060036,18.098 46.578,18.098 Z M56.329,10.44 C57.2716714,10.44 58.0276638,10.7153306 58.597,11.266 C59.1663362,11.8166694 59.451,12.6333279 59.451,13.716 L59.451,18 L57.701,18 L57.701,13.94 C57.701,13.2866634 57.5470015,12.794335 57.239,12.463 C56.9309985,12.131665 56.4923362,11.966 55.923,11.966 C55.2789968,11.966 54.7703352,12.1596647 54.397,12.547 C54.0236648,12.9343353 53.837,13.4919964 53.837,14.22 L53.837,18 L52.087,18 L52.087,7.612 L53.837,7.612 L53.837,11.392 C54.1263348,11.0839985 54.4833312,10.8483341 54.908,10.685 C55.3326688,10.5216658 55.8063307,10.44 56.329,10.44 Z M62.552,10.524 L64.302,10.524 L64.302,18 L62.552,18 L62.552,10.524 Z M63.434,9.292 C63.1166651,9.292 62.8506677,9.19166767 62.636,8.991 C62.4213323,8.79033233 62.314,8.54066816 62.314,8.242 C62.314,7.94333184 62.4213323,7.69366767 62.636,7.493 C62.8506677,7.29233233 63.1166651,7.192 63.434,7.192 C63.7513349,7.192 64.0173323,7.28766571 64.232,7.479 C64.4466677,7.67033429 64.554,7.91066522 64.554,8.2 C64.554,8.50800154 64.4490011,8.76699895 64.239,8.977 C64.028999,9.18700105 63.7606683,9.292 63.434,9.292 Z M67.473,7.612 L69.223,7.612 L69.223,18 L67.473,18 L67.473,7.612 Z M75.754,18.098 C74.9979962,18.098 74.3166697,17.9346683 73.71,17.608 C73.1033303,17.2813317 72.6296684,16.8263362 72.289,16.243 C71.9483316,15.6596637 71.778,14.999337 71.778,14.262 C71.778,13.524663 71.9483316,12.8666696 72.289,12.288 C72.6296684,11.7093304 73.1033303,11.2566683 73.71,10.93 C74.3166697,10.6033317 74.9979962,10.44 75.754,10.44 C76.5193372,10.44 77.2053303,10.6033317 77.812,10.93 C78.4186697,11.2566683 78.8923316,11.7093304 79.233,12.288 C79.5736684,12.8666696 79.744,13.524663 79.744,14.262 C79.744,14.999337 79.5736684,15.6596637 79.233,16.243 C78.8923316,16.8263362 78.4186697,17.2813317 77.812,17.608 C77.2053303,17.9346683 76.5193372,18.098 75.754,18.098 Z M75.754,16.6 C76.3980032,16.6 76.9299979,16.3853355 77.35,15.956 C77.7700021,15.5266645 77.98,14.9620035 77.98,14.262 C77.98,13.5619965 77.7700021,12.9973355 77.35,12.568 C76.9299979,12.1386645 76.3980032,11.924 75.754,11.924 C75.1099968,11.924 74.5803354,12.1386645 74.165,12.568 C73.7496646,12.9973355 73.542,13.5619965 73.542,14.262 C73.542,14.9620035 73.7496646,15.5266645 74.165,15.956 C74.5803354,16.3853355 75.1099968,16.6 75.754,16.6 Z" id="chilo" fill="#1E3056"></path>
                </g>
            </g>
        </g>
    </g>
</svg>